# xmcd
#
# Track frame offsets:
#	150
#	13267
#	23422
#	34735
#	45192
#	58670
#	69610
#	80975
#	96100
#	109637
#	120840
#	129990
#	142162
#	153777
#
# Disc length: 2177 seconds
#
# Revision: 0
# Processed by: cddbd v1.5.1PL0 Copyright (c) Steve Scherf et al.
# Submitted via: audiograbber 1.83.01
#
DISCID=ad087f0e
DTITLE=Various Artist - Class of Country 1970-1974
DYEAR=1997
DGENRE=Country
TTITLE0=Lynn Anderson - Rose Gardem
TTITLE1=Billy "Crash" Craddock - Rub iIt In
TTITLE2=Conway Twitty and Loretta Lynn - Louisiana Woman, Missippi Man
TTITLE3=Jerry Reed Hubbard - When You're Hot You're Hot
TTITLE4=Loretta Lynn - Coal Miner's Daughter
TTITLE5=Conway Twitty - Hello Darlin'
TTITLE6=Conna Fargo - The Happiest Girl In The Whole U.S.A
TTITLE7=Jeanne Pruett - Satin Sheets
TTITLE8=Don Williams - I Wouldn't Want To Live If You Didn't Love Me
TTITLE9=Joe Sampley - Soul Long
TTITLE10=Charley Pride - Kiss An Angel Good Mornin'
TTITLE11=Bill Anderson - World Of Make Believe
TTITLE12=Sonny James - It's Just A Matter Of Time
TTITLE13=Tom T. Hall - I Love
EXTD=
EXTT0=
EXTT1=
EXTT2=
EXTT3=
EXTT4=
EXTT5=
EXTT6=
EXTT7=
EXTT8=
EXTT9=
EXTT10=
EXTT11=
EXTT12=
EXTT13=
PLAYORDER=
